<?xml version="1.0" encoding="utf-8"?>
<!-- Generator: Adobe Illustrator 16.0.0, SVG Export Plug-In . SVG Version: 6.00 Build 0)  -->
<!DOCTYPE svg PUBLIC "-//W3C//DTD SVG 1.1//EN" "http://www.w3.org/Graphics/SVG/1.1/DTD/svg11.dtd">
<svg version="1.1" id="Layer_1" xmlns="http://www.w3.org/2000/svg" xmlns:xlink="http://www.w3.org/1999/xlink" x="0px" y="0px"
	 width="200px" height="89.883px" viewBox="0 0 200 89.883" enable-background="new 0 0 200 89.883" xml:space="preserve">
<g>
	<g>
		<path fill-rule="evenodd" clip-rule="evenodd" fill="#FEFEFE" d="M114.158,32.483c0,0.888-0.039,1.777,0.01,2.663
			c0.058,1.082,0.146,2.166,0.468,3.212c0.046,0.153,0.082,0.367,0.267,0.379c0.229,0.015,0.26-0.226,0.311-0.388
			c0.203-0.644,0.306-1.312,0.41-1.977c0.517-3.328,1.014-6.66,1.883-9.922c1.085-4.073,2.582-7.971,5.031-11.438
			c3.473-4.914,7.994-8.18,14.152-8.746c2.795-0.257,5.465,0.224,7.952,1.593c3.136,1.727,5.401,4.302,7.211,7.332
			c0.953,1.593,1.853,3.22,2.956,4.72c1.743,2.365,3.945,4.03,6.898,4.553c2.295,0.406,4.59,0.216,6.882-0.028
			c2.878-0.307,5.745-0.688,8.651-0.667c4.465,0.032,8.557,1.228,12.262,3.73c1.984,1.34,3.49,3.092,4.521,5.242
			c1.795,3.737,2.018,7.684,1.465,11.713c-0.526,3.858-1.785,7.496-3.371,11.035c-1.428,3.184-3.192,6.186-4.896,9.223
			c-0.256,0.458-0.501,0.924-0.725,1.399c-0.112,0.241-0.351,0.569-0.109,0.762c0.2,0.16,0.467-0.128,0.674-0.278
			c0.493-0.359,0.936-0.781,1.352-1.226c4.379-4.66,7.727-9.963,9.824-16.017c1.657-4.787,2.311-9.682,1.244-14.7
			c-0.857-4.042-2.715-7.551-5.912-10.221c-5.404-4.511-11.729-6.201-18.675-5.918c-3.175,0.131-6.319,0.593-9.485,0.815
			c-2.818,0.197-5.131-0.578-6.644-3.117c-0.058-0.099-0.127-0.192-0.19-0.288c-1.1-1.657-2.056-3.405-3.174-5.05
			c-2.316-3.403-5.229-6.158-8.982-7.87c-5.996-2.732-11.95-2.241-17.723,0.697c-5.093,2.593-8.592,6.747-11.013,11.851
			C115.142,20.905,114.15,26.597,114.158,32.483"/>
		<path fill-rule="evenodd" clip-rule="evenodd" fill="#FEFEFE" d="M168.82,46.094c-0.041-0.013-0.082-0.026-0.125-0.039v-0.526
			c0-4.576-0.004-9.151,0.011-13.727c0-0.409-0.109-0.529-0.522-0.523c-1.761,0.022-3.521,0.025-5.283-0.002
			c-0.457-0.007-0.565,0.124-0.564,0.572c0.014,7.044,0.01,14.089,0.01,21.133c0,4.69,0.01,9.382-0.015,14.072
			c-0.002,0.521,0.151,0.616,0.63,0.608c1.727-0.029,3.456-0.031,5.184,0c0.475,0.01,0.562-0.147,0.562-0.582
			c-0.015-4.724-0.013-9.447-0.004-14.172c0.001-0.49,0.024-0.99,0.122-1.469c0.481-2.325,2.478-4.046,4.854-4.111
			c1.917-0.053,3.503,0.721,4.328,2.716c0.44,1.066,0.616,2.183,0.62,3.321c0.012,4.594,0.01,9.186-0.005,13.777
			c-0.001,0.413,0.11,0.523,0.521,0.518c1.76-0.023,3.521-0.027,5.282,0.002c0.447,0.006,0.539-0.125,0.539-0.552
			c-0.017-4.772-0.004-9.546-0.015-14.319c-0.004-1.35-0.152-2.687-0.485-4c-1.651-6.5-7.753-7.778-11.972-5.825
			C170.986,43.663,169.738,44.686,168.82,46.094"/>
		<path fill-rule="evenodd" clip-rule="evenodd" fill="#FEFEFE" d="M16.56,46.558c-0.048-0.295-0.081-0.435-0.093-0.576
			c-0.077-0.95-0.162-1.901-0.217-2.853c-0.018-0.306-0.097-0.434-0.429-0.43c-1.597,0.015-3.194,0.013-4.79,0
			c-0.299-0.002-0.393,0.069-0.369,0.386c0.142,1.87,0.176,3.744,0.175,5.62c-0.002,6.156,0.003,12.312-0.01,18.467
			c-0.001,0.392,0.101,0.492,0.488,0.487c1.794-0.021,3.589-0.024,5.382,0.002c0.434,0.007,0.541-0.1,0.54-0.538
			c-0.013-4.855,0.002-9.711,0.003-14.566c0-1.482,0.576-2.723,1.597-3.755c1.363-1.378,3.024-1.812,4.891-1.346
			c1.762,0.441,2.63,1.746,3.085,3.394c0.265,0.958,0.324,1.941,0.323,2.933c-0.003,4.461,0.003,8.921-0.009,13.382
			c-0.001,0.372,0.073,0.502,0.478,0.496c1.794-0.023,3.588-0.023,5.382,0c0.399,0.006,0.48-0.115,0.478-0.49
			c-0.012-4.527-0.007-9.054-0.008-13.58c0-0.938-0.001-1.875-0.113-2.81c-0.256-2.144-0.878-4.141-2.296-5.828
			c-3.195-3.8-9.578-3.6-12.957-0.343C17.524,45.157,17.026,45.757,16.56,46.558"/>
		<path fill-rule="evenodd" clip-rule="evenodd" fill="#FEFEFE" d="M97.955,57.55c0-3.209,0.008-6.418-0.009-9.628
			c-0.003-0.416,0.118-0.524,0.524-0.517c1.432,0.024,2.865-0.01,4.296,0.02c0.475,0.01,0.658-0.079,0.637-0.609
			c-0.047-1.183-0.033-2.369-0.005-3.554c0.009-0.438-0.089-0.595-0.563-0.584c-1.496,0.033-2.996,0.01-4.493,0.013
			c-0.229,0.001-0.417,0.006-0.416-0.321c0.004-1.086-0.018-2.17,0.229-3.239c0.446-1.939,1.577-3.072,3.414-3.337
			c0.872-0.126,1.736,0.02,2.585,0.241c0.656,0.171,0.642,0.17,0.699-0.533c0.097-1.195,0.168-2.395,0.341-3.58
			c0.075-0.511-0.082-0.656-0.518-0.767c-1.594-0.41-3.203-0.565-4.836-0.344c-3.309,0.446-5.777,2.066-7.134,5.195
			c-0.861,1.983-1.116,4.077-1.066,6.217c0.009,0.366-0.094,0.487-0.469,0.475c-0.838-0.026-1.678,0.002-2.518-0.014
			c-0.296-0.006-0.4,0.081-0.397,0.389c0.015,1.317,0.014,2.634,0.001,3.951c-0.003,0.296,0.076,0.404,0.386,0.397
			c0.773-0.02,1.547-0.007,2.321-0.007c0.669,0,0.669,0,0.669,0.65c0,6.337,0.006,12.674-0.012,19.012
			c-0.001,0.488,0.136,0.596,0.603,0.588c1.711-0.029,3.424-0.037,5.136,0.002c0.527,0.013,0.609-0.16,0.606-0.633
			C97.945,63.872,97.955,60.712,97.955,57.55"/>
		<path fill-rule="evenodd" clip-rule="evenodd" fill="#FEFEFE" d="M149.884,68.243c0.364,0.033,0.954-0.047,1.542-0.104
			c1.889-0.188,3.671-0.691,5.277-1.754c3.935-2.606,4.008-8.436,0.941-11.127c-1.246-1.096-2.678-1.84-4.209-2.418
			c-1.215-0.457-2.464-0.844-3.539-1.599c-1.261-0.883-1.475-2.535-0.463-3.601c0.608-0.641,1.414-0.88,2.274-0.937
			c1.938-0.126,3.755,0.332,5.464,1.218c0.357,0.185,0.432,0.075,0.516-0.236c0.315-1.19,0.615-2.386,0.984-3.56
			c0.141-0.45-0.006-0.603-0.375-0.759c-2.805-1.179-5.708-1.538-8.693-0.982c-2.164,0.403-4.058,1.365-5.404,3.174
			c-2.06,2.768-2.194,6.85,1.021,9.39c1.31,1.035,2.778,1.746,4.334,2.304c1.069,0.383,2.14,0.762,3.063,1.449
			c0.921,0.686,1.199,1.631,1.022,2.711c-0.159,0.969-0.813,1.551-1.7,1.883c-0.511,0.19-1.043,0.291-1.59,0.315
			c-2.361,0.106-4.558-0.489-6.639-1.563c-0.318-0.164-0.441-0.133-0.533,0.229c-0.314,1.242-0.639,2.482-1,3.711
			c-0.109,0.369-0.011,0.52,0.312,0.674C144.757,67.745,147.158,68.199,149.884,68.243"/>
		<path fill-rule="evenodd" clip-rule="evenodd" fill="#FEFEFE" d="M104.631,56.845h0.017c0,3.439,0.006,6.879-0.009,10.318
			c-0.002,0.383,0.093,0.502,0.488,0.497c1.795-0.021,3.588-0.022,5.381,0.001c0.41,0.006,0.482-0.133,0.48-0.502
			c-0.012-4.081-0.002-8.163-0.012-12.244c-0.002-0.729,0.052-1.447,0.21-2.152c0.491-2.196,1.675-3.795,3.905-4.476
			c0.961-0.295,1.94-0.293,2.924-0.136c0.6,0.096,0.6,0.107,0.601-0.511c0.001-1.612-0.014-3.225,0.011-4.838
			c0.006-0.385-0.092-0.576-0.488-0.607c-0.821-0.065-1.643-0.092-2.449,0.122c-2.549,0.673-4.199,2.339-5.202,4.72
			c-0.058,0.137-0.052,0.389-0.267,0.346c-0.166-0.033-0.099-0.256-0.104-0.394c-0.05-1.248-0.099-2.497-0.131-3.746
			c-0.011-0.355-0.103-0.528-0.513-0.522c-1.529,0.022-3.062,0.02-4.59,0.001c-0.367-0.005-0.443,0.128-0.424,0.459
			c0.068,1.164,0.156,2.329,0.163,3.494C104.645,50.065,104.631,53.455,104.631,56.845"/>
		<path fill-rule="evenodd" clip-rule="evenodd" fill="#FEFEFE" d="M6.718,55.208c0-3.999-0.004-7.996,0.007-11.995
			c0.001-0.36-0.059-0.516-0.475-0.511c-1.826,0.025-3.653,0.021-5.479,0.002c-0.356-0.003-0.428,0.11-0.428,0.444
			c0.009,8.029,0.01,16.058-0.001,24.086c-0.001,0.358,0.107,0.428,0.441,0.425c1.81-0.018,3.62-0.021,5.429,0.002
			c0.407,0.005,0.518-0.092,0.517-0.509C6.711,63.171,6.718,59.189,6.718,55.208"/>
		<path fill-rule="evenodd" clip-rule="evenodd" fill="#FEFEFE" d="M176.531,0.001c-0.131,0-0.263-0.004-0.395,0.002
			c-0.081,0.003-0.162,0.024-0.243,0.036c-1.972,0.291-3.679,1.177-5.243,2.365c-2.627,1.997-4.641,4.543-6.44,7.275
			c-0.913,1.387-1.761,2.814-2.479,4.313c-0.535,1.113-0.187,2.316,0.817,2.931c1.032,0.632,2.163,0.382,2.944-0.649
			c0.199-0.262,0.401-0.52,0.604-0.779c3.468-4.423,7.756-7.732,13.087-9.617c0.758-0.268,1.533-0.483,2.293-0.747
			c0.811-0.282,1.067-0.814,0.776-1.571c-0.076-0.198-0.167-0.4-0.293-0.568C180.603,1.177,178.77,0.216,176.531,0.001"/>
		<path fill-rule="evenodd" clip-rule="evenodd" fill="#FEFEFE" d="M3.478,39.154c2.1,0.007,3.601-1.392,3.605-3.358
			c0.005-2.027-1.444-3.48-3.481-3.492C1.507,32.291,0.011,33.713,0,35.725C-0.01,37.714,1.443,39.147,3.478,39.154"/>
		<path fill-rule="evenodd" clip-rule="evenodd" fill="#E41C25" d="M54.834,63.827c-0.541,0.686-1.035,1.379-1.67,1.955
			c-2.098,1.906-4.603,2.635-7.374,2.399c-3.814-0.324-6.619-2.327-8.233-5.711c-2.418-5.069-2.353-10.231,0.484-15.122
			c2.823-4.868,8.251-6.152,12.636-4.608c1.419,0.5,2.587,1.347,3.456,2.644c0.106-0.185,0.064-0.363,0.064-0.528
			c0.003-4.346,0.008-8.69-0.008-13.035c-0.001-0.422,0.081-0.557,0.533-0.55c1.76,0.031,3.522,0.031,5.282,0
			c0.457-0.009,0.527,0.135,0.527,0.549c-0.012,9.645-0.021,19.289-0.001,28.935c0.004,2.135,0.111,4.271,0.188,6.406
			c0.014,0.355-0.027,0.51-0.449,0.502c-1.596-0.029-3.193-0.021-4.789-0.006c-0.313,0.004-0.409-0.072-0.424-0.4
			C55.005,66.113,54.912,64.971,54.834,63.827 M54.2,55.177c0-0.928,0.008-1.668-0.002-2.408c-0.022-1.673-0.594-3.129-1.819-4.278
			c-2.73-2.559-7.14-1.721-8.87,1.729c-1.484,2.96-1.558,6.051-0.382,9.121c1.009,2.636,3.248,3.972,6.01,3.763
			c2.372-0.181,4.318-1.987,4.915-4.572C54.321,57.361,54.146,56.171,54.2,55.177"/>
		<path fill-rule="evenodd" clip-rule="evenodd" fill="#9FCE67" d="M168.82,46.094c0.918-1.409,2.166-2.432,3.672-3.128
			c4.219-1.953,10.32-0.675,11.972,5.825c0.333,1.314,0.481,2.651,0.485,4c0.011,4.773-0.002,9.547,0.015,14.319
			c0,0.427-0.092,0.558-0.539,0.552c-1.761-0.029-3.522-0.025-5.282-0.002c-0.41,0.006-0.521-0.104-0.521-0.518
			c0.015-4.592,0.017-9.184,0.005-13.777c-0.004-1.138-0.18-2.255-0.62-3.321c-0.825-1.995-2.411-2.769-4.328-2.716
			c-2.377,0.065-4.373,1.786-4.854,4.111c-0.098,0.479-0.121,0.979-0.122,1.469c-0.009,4.725-0.011,9.448,0.004,14.172
			c0,0.435-0.087,0.592-0.562,0.582c-1.728-0.031-3.457-0.029-5.184,0c-0.479,0.008-0.632-0.088-0.63-0.608
			c0.024-4.69,0.015-9.382,0.015-14.072c0-7.044,0.004-14.089-0.01-21.133c-0.001-0.448,0.107-0.579,0.564-0.572
			c1.762,0.027,3.522,0.024,5.283,0.002c0.413-0.006,0.522,0.114,0.522,0.523c-0.015,4.576-0.011,9.151-0.011,13.727v0.526
			C168.738,46.068,168.779,46.082,168.82,46.094"/>
		<path fill-rule="evenodd" clip-rule="evenodd" fill="#E41C25" d="M88.382,54.74c0.006,2.712-0.425,5.056-1.606,7.21
			c-1.935,3.527-5.008,5.438-8.907,6.087c-2.758,0.458-5.45,0.166-7.996-1.03c-3.267-1.535-5.333-4.117-6.267-7.57
			c-0.865-3.195-0.772-6.4,0.401-9.504c1.62-4.293,4.816-6.75,9.285-7.557c2.653-0.479,5.288-0.332,7.803,0.714
			c3.875,1.613,6.087,4.601,6.972,8.641C88.304,52.812,88.405,53.907,88.382,54.74 M81.86,55.146
			c0.014-1.125-0.121-2.233-0.423-3.315c-0.481-1.719-1.258-3.254-2.807-4.269c-2.077-1.361-6.028-1.257-7.836,2.351
			c-1.454,2.902-1.536,5.94-0.634,9.019c0.45,1.535,1.253,2.861,2.599,3.789c2.533,1.746,5.857,0.983,7.583-1.738
			C81.471,59.201,81.842,57.218,81.86,55.146"/>
		<path fill-rule="evenodd" clip-rule="evenodd" fill="#E41C25" d="M16.56,46.558c0.467-0.801,0.965-1.401,1.531-1.948
			c3.379-3.257,9.762-3.457,12.957,0.343c1.418,1.687,2.04,3.684,2.296,5.828c0.112,0.934,0.113,1.871,0.113,2.81
			c0.001,4.526-0.004,9.053,0.008,13.58c0.002,0.375-0.079,0.496-0.478,0.49c-1.794-0.023-3.588-0.023-5.382,0
			c-0.405,0.006-0.479-0.124-0.478-0.496c0.012-4.461,0.006-8.921,0.009-13.382c0.001-0.991-0.058-1.975-0.323-2.933
			c-0.455-1.648-1.323-2.953-3.085-3.394c-1.867-0.466-3.528-0.032-4.891,1.346c-1.021,1.032-1.597,2.273-1.597,3.755
			c-0.001,4.855-0.016,9.711-0.003,14.566c0.001,0.438-0.106,0.545-0.54,0.538c-1.793-0.026-3.588-0.022-5.382-0.002
			c-0.387,0.005-0.489-0.096-0.488-0.487c0.013-6.155,0.008-12.312,0.01-18.467c0.001-1.876-0.033-3.75-0.175-5.62
			c-0.024-0.317,0.07-0.388,0.369-0.386c1.596,0.013,3.193,0.015,4.79,0c0.332-0.004,0.411,0.124,0.429,0.43
			c0.055,0.952,0.14,1.903,0.217,2.853C16.479,46.124,16.512,46.263,16.56,46.558"/>
		<path fill-rule="evenodd" clip-rule="evenodd" fill="#9FCE67" d="M132.619,56.971h-7.705c-0.656,0-0.672,0.003-0.586,0.657
			c0.318,2.424,1.597,4.138,3.863,5.066c1.565,0.643,3.209,0.754,4.889,0.664c1.885-0.1,3.728-0.359,5.506-1.009
			c0.24-0.089,0.312,0.013,0.357,0.238c0.254,1.239,0.51,2.478,0.791,3.71c0.07,0.309-0.051,0.391-0.301,0.482
			c-1.799,0.658-3.646,1.086-5.553,1.291c-2.105,0.226-4.199,0.259-6.279-0.198c-4.933-1.085-8.014-4.075-9.048-9.027
			c-0.831-3.978-0.308-7.804,1.849-11.301c1.889-3.069,4.668-4.839,8.258-5.287c2.121-0.265,4.207-0.13,6.203,0.698
			c2.619,1.088,4.31,3.073,5.305,5.672c0.976,2.552,1.224,5.195,0.871,7.904c-0.049,0.369-0.174,0.447-0.519,0.445
			C137.887,56.965,135.253,56.971,132.619,56.971 M129.732,52.538c1.662,0,3.324-0.014,4.987,0.01
			c0.408,0.006,0.522-0.133,0.476-0.504c-0.048-0.374-0.054-0.756-0.119-1.126c-0.851-4.821-5.5-5.349-8.097-3.495
			c-1.624,1.16-2.342,2.874-2.661,4.786c-0.056,0.329,0.139,0.332,0.377,0.331C126.373,52.536,128.053,52.538,129.732,52.538"/>
		<path fill-rule="evenodd" clip-rule="evenodd" fill="#9FCE67" d="M97.955,57.55c0,3.162-0.009,6.322,0.011,9.482
			c0.003,0.473-0.079,0.646-0.606,0.633c-1.712-0.039-3.425-0.031-5.136-0.002c-0.467,0.008-0.604-0.1-0.603-0.588
			c0.018-6.338,0.012-12.675,0.012-19.012c0-0.65,0-0.65-0.669-0.65c-0.774,0-1.548-0.013-2.321,0.007
			c-0.31,0.007-0.389-0.101-0.386-0.397c0.013-1.317,0.014-2.634-0.001-3.951c-0.003-0.308,0.101-0.395,0.397-0.389
			c0.84,0.016,1.68-0.012,2.518,0.014c0.375,0.012,0.478-0.109,0.469-0.475c-0.05-2.14,0.205-4.234,1.066-6.217
			c1.357-3.129,3.825-4.749,7.134-5.195c1.633-0.221,3.243-0.066,4.836,0.344c0.436,0.111,0.593,0.256,0.518,0.767
			c-0.173,1.185-0.244,2.385-0.341,3.58c-0.058,0.703-0.043,0.704-0.699,0.533c-0.849-0.221-1.713-0.367-2.585-0.241
			c-1.837,0.265-2.968,1.398-3.414,3.337c-0.247,1.069-0.225,2.153-0.229,3.239c-0.001,0.327,0.187,0.322,0.416,0.321
			c1.497-0.003,2.997,0.02,4.493-0.013c0.475-0.011,0.572,0.146,0.563,0.584c-0.028,1.185-0.042,2.371,0.005,3.554
			c0.021,0.53-0.162,0.619-0.637,0.609c-1.432-0.03-2.864,0.004-4.296-0.02c-0.406-0.007-0.527,0.101-0.524,0.517
			C97.962,51.131,97.955,54.341,97.955,57.55"/>
		<path fill-rule="evenodd" clip-rule="evenodd" fill="#9FCE67" d="M149.884,68.243c-2.726-0.044-5.127-0.498-7.394-1.582
			c-0.323-0.154-0.422-0.305-0.312-0.674c0.361-1.229,0.686-2.469,1-3.711c0.092-0.361,0.215-0.393,0.533-0.229
			c2.081,1.074,4.277,1.67,6.639,1.563c0.547-0.024,1.079-0.125,1.59-0.315c0.887-0.332,1.541-0.914,1.7-1.883
			c0.177-1.08-0.102-2.025-1.022-2.711c-0.924-0.688-1.994-1.066-3.063-1.449c-1.556-0.558-3.024-1.269-4.334-2.304
			c-3.215-2.54-3.08-6.622-1.021-9.39c1.347-1.809,3.24-2.771,5.404-3.174c2.985-0.556,5.889-0.197,8.693,0.982
			c0.369,0.156,0.516,0.309,0.375,0.759c-0.369,1.174-0.669,2.37-0.984,3.56c-0.084,0.311-0.158,0.421-0.516,0.236
			c-1.709-0.886-3.525-1.344-5.464-1.218c-0.86,0.057-1.666,0.296-2.274,0.937c-1.012,1.066-0.798,2.718,0.463,3.601
			c1.075,0.755,2.324,1.142,3.539,1.599c1.531,0.578,2.963,1.322,4.209,2.418c3.066,2.691,2.993,8.521-0.941,11.127
			c-1.606,1.062-3.389,1.566-5.277,1.754C150.838,68.196,150.248,68.276,149.884,68.243"/>
		<path fill-rule="evenodd" clip-rule="evenodd" fill="#9FCE67" d="M104.631,56.845c0-3.39,0.014-6.78-0.009-10.17
			c-0.007-1.165-0.095-2.33-0.163-3.494c-0.02-0.331,0.057-0.464,0.424-0.459c1.528,0.019,3.061,0.021,4.59-0.001
			c0.41-0.006,0.502,0.167,0.513,0.522c0.032,1.249,0.081,2.498,0.131,3.746c0.006,0.138-0.062,0.361,0.104,0.394
			c0.215,0.043,0.209-0.209,0.267-0.346c1.003-2.381,2.653-4.047,5.202-4.72c0.807-0.214,1.628-0.187,2.449-0.122
			c0.396,0.031,0.494,0.222,0.488,0.607c-0.024,1.613-0.01,3.226-0.011,4.838c-0.001,0.618-0.001,0.607-0.601,0.511
			c-0.983-0.157-1.963-0.159-2.924,0.136c-2.23,0.681-3.414,2.28-3.905,4.476c-0.158,0.705-0.212,1.424-0.21,2.152
			c0.01,4.081,0,8.163,0.012,12.244c0.002,0.369-0.07,0.508-0.48,0.502c-1.793-0.023-3.586-0.021-5.381-0.001
			c-0.396,0.005-0.49-0.114-0.488-0.497c0.015-3.439,0.009-6.879,0.009-10.318H104.631z"/>
		<path fill-rule="evenodd" clip-rule="evenodd" fill="#E41B24" d="M6.718,55.208c0,3.981-0.007,7.963,0.011,11.944
			c0.001,0.417-0.11,0.514-0.517,0.509c-1.809-0.023-3.619-0.02-5.429-0.002c-0.334,0.003-0.442-0.066-0.441-0.425
			c0.011-8.028,0.01-16.057,0.001-24.086c0-0.334,0.072-0.447,0.428-0.444c1.826,0.019,3.653,0.023,5.479-0.002
			c0.416-0.005,0.476,0.151,0.475,0.511C6.714,47.212,6.718,51.209,6.718,55.208"/>
		<path fill-rule="evenodd" clip-rule="evenodd" fill="#E41C25" d="M114.158,32.483c-0.008-5.886,0.983-11.578,3.524-16.932
			c2.421-5.104,5.92-9.258,11.013-11.851c5.772-2.938,11.727-3.429,17.723-0.697c3.754,1.712,6.666,4.467,8.982,7.87
			c1.118,1.645,2.074,3.393,3.174,5.05c0.063,0.096,0.133,0.189,0.19,0.288c1.513,2.539,3.825,3.314,6.644,3.117
			c3.166-0.222,6.311-0.684,9.485-0.815c6.945-0.283,13.271,1.407,18.675,5.918c3.197,2.67,5.055,6.179,5.912,10.221
			c1.066,5.018,0.413,9.913-1.244,14.7c-2.098,6.054-5.445,11.357-9.824,16.017c-0.416,0.444-0.858,0.866-1.352,1.226
			c-0.207,0.15-0.474,0.438-0.674,0.278c-0.241-0.192-0.003-0.521,0.109-0.762c0.224-0.476,0.469-0.941,0.725-1.399
			c1.704-3.037,3.469-6.039,4.896-9.223c1.586-3.539,2.845-7.177,3.371-11.035c0.553-4.029,0.33-7.976-1.465-11.713
			c-1.031-2.15-2.537-3.902-4.521-5.242c-3.705-2.502-7.797-3.698-12.262-3.73c-2.906-0.021-5.773,0.36-8.651,0.667
			c-2.292,0.244-4.587,0.434-6.882,0.028c-2.953-0.523-5.155-2.188-6.898-4.553c-1.104-1.5-2.003-3.127-2.956-4.72
			c-1.81-3.03-4.075-5.605-7.211-7.332c-2.487-1.369-5.157-1.85-7.952-1.593c-6.158,0.566-10.68,3.832-14.152,8.746
			c-2.449,3.467-3.946,7.365-5.031,11.438c-0.869,3.262-1.366,6.594-1.883,9.922c-0.104,0.665-0.207,1.333-0.41,1.977
			c-0.051,0.162-0.081,0.403-0.311,0.388c-0.185-0.012-0.221-0.226-0.267-0.379c-0.322-1.046-0.41-2.13-0.468-3.212
			C114.119,34.26,114.158,33.371,114.158,32.483"/>
		<path fill-rule="evenodd" clip-rule="evenodd" fill="#9FCE67" d="M176.531,0.001c2.238,0.214,4.071,1.175,5.429,2.991
			c0.126,0.168,0.217,0.37,0.293,0.568c0.291,0.757,0.034,1.289-0.776,1.571c-0.76,0.264-1.535,0.479-2.293,0.747
			c-5.331,1.885-9.619,5.194-13.087,9.617c-0.203,0.259-0.405,0.517-0.604,0.779c-0.781,1.031-1.912,1.281-2.944,0.649
			c-1.004-0.615-1.353-1.818-0.817-2.931c0.719-1.499,1.566-2.926,2.479-4.313c1.8-2.732,3.813-5.278,6.44-7.275
			c1.564-1.188,3.271-2.074,5.243-2.365c0.081-0.012,0.162-0.033,0.243-0.036C176.269-0.002,176.4,0.001,176.531,0.001"/>
		<path fill-rule="evenodd" clip-rule="evenodd" fill="#E41C25" d="M3.478,39.154C1.443,39.147-0.01,37.714,0,35.725
			c0.011-2.012,1.507-3.434,3.602-3.421c2.037,0.012,3.486,1.465,3.481,3.492C7.079,37.762,5.578,39.161,3.478,39.154"/>
		<path fill-rule="evenodd" clip-rule="evenodd" fill="#E41C25" d="M151.359,86.371c-0.189,1.018-0.402,1.995-0.541,2.981
			c-0.074,0.524-0.298,0.631-0.82,0.448c0.133-0.729,0.265-1.462,0.4-2.194c0.533-2.892,1.078-5.781,1.594-8.676
			c0.084-0.465,0.318-0.48,0.733-0.373c-0.058,0.485-0.113,0.969-0.185,1.578c0.188-0.209,0.291-0.322,0.393-0.438
			c0.57-0.649,1.236-1.139,2.1-1.328c1.447-0.32,2.629,0.429,2.938,1.875c0.48,2.248-0.896,5.084-2.963,6.078
			c-1.036,0.498-2.112,0.49-3.2,0.188C151.672,86.474,151.539,86.429,151.359,86.371 M157.287,81.348
			c-0.019-0.991-0.185-1.834-1.1-2.255c-0.93-0.427-1.716-0.027-2.416,0.566c-0.834,0.707-1.34,1.639-1.6,2.684
			c-0.235,0.954-0.365,1.936-0.584,2.895c-0.082,0.358,0.061,0.5,0.344,0.601c1.238,0.442,2.404,0.349,3.433-0.526
			C156.61,84.254,157.207,82.878,157.287,81.348"/>
		<path fill-rule="evenodd" clip-rule="evenodd" fill="#E41C25" d="M175.357,86.368c-0.181,0.983-0.363,1.947-0.531,2.914
			c-0.115,0.653-0.123,0.666-0.838,0.531c0.707-3.744,1.412-7.49,2.127-11.275h0.627c-0.067,0.498-0.135,0.982-0.187,1.363
			c0.246-0.195,0.544-0.416,0.823-0.66c0.779-0.68,1.663-1.076,2.711-0.906c1.111,0.18,1.763,0.974,1.941,2.271
			c0.283,2.068-1.002,4.623-2.823,5.609C177.974,86.885,176.703,86.829,175.357,86.368 M177.226,86.085
			c0.005,0.019,0.009,0.039,0.011,0.057c0.383-0.081,0.783-0.115,1.145-0.252c1.936-0.73,3.357-3.579,2.8-5.566
			c-0.33-1.179-1.389-1.699-2.526-1.217c-1.11,0.471-1.819,1.362-2.196,2.454c-0.349,1.007-0.546,2.07-0.759,3.119
			c-0.215,1.056-0.014,1.28,1.098,1.379C176.939,86.071,177.082,86.077,177.226,86.085"/>
		<path fill-rule="evenodd" clip-rule="evenodd" fill="#E41C25" d="M69.254,86.476c0.752-3.955,1.499-7.879,2.25-11.826h0.738
			c-0.341,1.762-0.679,3.5-1.01,5.209c0.295-0.252,0.547-0.55,0.866-0.723c0.573-0.312,1.163-0.672,1.789-0.794
			c1.518-0.296,2.58,0.825,2.387,2.479c-0.125,1.066-0.344,2.123-0.531,3.182c-0.118,0.671-0.293,1.334-0.374,2.009
			c-0.064,0.536-0.324,0.611-0.825,0.466c0.226-1.211,0.458-2.419,0.676-3.628c0.122-0.67,0.252-1.34,0.33-2.017
			c0.16-1.413-0.884-2.251-2.212-1.748c-1.363,0.518-2.179,1.57-2.508,2.956c-0.309,1.308-0.537,2.636-0.746,3.964
			C70.001,86.53,69.771,86.628,69.254,86.476"/>
		<path fill-rule="evenodd" clip-rule="evenodd" fill="#E41C25" d="M112.111,79.887c0.139-0.153,0.271-0.313,0.417-0.46
			c0.862-0.867,1.872-1.33,3.112-1.035c0.813,0.195,1.375,0.817,1.348,1.666c-0.034,1.068-0.191,2.135-0.348,3.196
			c-0.135,0.922-0.367,1.828-0.506,2.749c-0.076,0.504-0.305,0.639-0.83,0.471c0.16-0.859,0.33-1.729,0.483-2.6
			c0.179-1.006,0.396-2.008,0.5-3.021c0.202-1.966-1.457-2.232-2.571-1.615c-1.227,0.681-1.935,1.742-2.205,3.097
			c-0.244,1.212-0.471,2.429-0.662,3.651c-0.082,0.531-0.322,0.658-0.83,0.492c0.261-1.396,0.516-2.785,0.781-4.174
			c0.45-2.359,0.924-4.715,1.344-7.08c0.096-0.535,0.283-0.729,0.854-0.545c-0.334,1.717-0.669,3.439-1.003,5.161
			C112.034,79.856,112.072,79.871,112.111,79.887"/>
		<path fill-rule="evenodd" clip-rule="evenodd" fill="#E41C25" d="M169.344,86.704c-1.7,0.006-2.875-1.092-2.982-2.946
			c-0.107-1.856,0.527-3.456,1.993-4.665c0.584-0.482,1.272-0.742,2.024-0.79c1.645-0.106,2.875,0.835,3.123,2.474
			c0.3,1.983-0.311,3.688-1.799,5.043C171.047,86.418,170.25,86.729,169.344,86.704 M172.805,81.743c0-0.143,0.007-0.288-0.001-0.43
			c-0.09-1.518-1.108-2.513-2.474-2.392c-0.785,0.069-1.426,0.453-1.95,1.031c-0.86,0.948-1.222,2.095-1.285,3.344
			c-0.058,1.136,0.542,2.216,1.399,2.599c0.946,0.422,2.014,0.166,2.887-0.716C172.32,84.229,172.762,83.067,172.805,81.743"/>
		<path fill-rule="evenodd" clip-rule="evenodd" fill="#E41C25" d="M78.718,82.729c-0.098,1.077-0.154,2.156,0.775,2.889
			c1.093,0.861,2.243,0.404,3.421-0.066c0.066,0.152,0.14,0.32,0.227,0.521c-1.149,0.655-2.331,0.844-3.55,0.453
			c-0.944-0.302-1.394-1.088-1.594-2.016c-0.429-1.992,0.637-4.559,2.347-5.658c0.703-0.452,1.465-0.661,2.307-0.504
			c0.779,0.146,1.325,0.566,1.493,1.357c0.169,0.797-0.039,1.502-0.69,2.026c-0.698,0.563-1.544,0.747-2.407,0.839
			C80.299,82.651,79.545,82.676,78.718,82.729 M78.903,82.067c1.266,0.008,2.488,0.014,3.621-0.535
			c0.783-0.382,1.105-1.125,0.836-1.816c-0.235-0.602-0.991-0.916-1.781-0.737C80.352,79.258,79.143,80.628,78.903,82.067"/>
		<path fill-rule="evenodd" clip-rule="evenodd" fill="#E41C25" d="M102.075,85.573c0.052,0.15,0.108,0.314,0.182,0.523
			c-1.207,0.639-2.431,0.865-3.692,0.357c-0.941-0.379-1.371-1.221-1.466-2.171c-0.212-2.13,0.498-3.923,2.173-5.285
			c0.601-0.489,1.315-0.724,2.102-0.7c0.964,0.028,1.679,0.524,1.89,1.314c0.236,0.889-0.084,1.861-0.916,2.271
			c-0.678,0.334-1.439,0.53-2.187,0.678c-0.627,0.123-1.285,0.102-1.93,0.111c-0.297,0.006-0.449,0.106-0.427,0.402
			c0.037,0.498,0.024,1.014,0.148,1.49c0.311,1.191,1.363,1.738,2.725,1.445C101.128,85.914,101.561,85.736,102.075,85.573
			 M97.959,82.065c1.345,0.013,2.568,0.011,3.703-0.534c0.771-0.372,1.087-1.082,0.845-1.769c-0.226-0.642-0.991-0.998-1.798-0.783
			C99.159,79.396,98.497,80.613,97.959,82.065"/>
		<path fill-rule="evenodd" clip-rule="evenodd" fill="#E41C25" d="M160.02,82.729c-0.14,1.038-0.148,2.094,0.703,2.831
			c1.094,0.947,2.291,0.474,3.446,0.011c0.306,0.477,0.29,0.545-0.205,0.762c-0.846,0.371-1.735,0.465-2.637,0.324
			c-1.149-0.179-1.979-1.143-2.085-2.547c-0.156-2.088,0.589-3.837,2.246-5.148c0.624-0.494,1.363-0.713,2.166-0.661
			c0.882,0.057,1.568,0.554,1.763,1.264c0.237,0.869-0.011,1.821-0.78,2.226c-0.711,0.375-1.521,0.607-2.315,0.769
			C161.592,82.706,160.826,82.677,160.02,82.729 M160.128,82.066c1.319,0.009,2.522,0.009,3.646-0.514
			c0.801-0.372,1.144-1.08,0.904-1.789c-0.217-0.638-0.988-0.996-1.801-0.782C161.321,79.391,160.663,80.612,160.128,82.066"/>
		<path fill-rule="evenodd" clip-rule="evenodd" fill="#E41C25" d="M191.695,85.525c0.076,0.224,0.126,0.373,0.193,0.571
			c-1.213,0.638-2.448,0.875-3.729,0.346c-0.872-0.359-1.3-1.146-1.409-2.035c-0.267-2.171,0.437-3.999,2.138-5.398
			c0.629-0.519,1.381-0.756,2.205-0.709c0.92,0.054,1.553,0.518,1.785,1.299c0.25,0.841-0.011,1.789-0.799,2.207
			c-0.695,0.369-1.49,0.586-2.268,0.752c-0.625,0.134-1.285,0.107-1.93,0.115c-0.324,0.004-0.473,0.104-0.441,0.432
			c0.002,0.019,0,0.035,0,0.054c-0.088,2.515,1.43,3.556,3.769,2.582C191.355,85.681,191.498,85.613,191.695,85.525 M187.592,82.062
			c1.346,0.021,2.584,0.016,3.731-0.545c0.756-0.37,1.062-1.1,0.804-1.781c-0.232-0.615-0.99-0.963-1.762-0.764
			C188.811,79.374,188.145,80.589,187.592,82.062"/>
		<path fill-rule="evenodd" clip-rule="evenodd" fill="#E41C25" d="M136.012,86.515c0.076-0.518,0.142-0.975,0.226-1.559
			c-0.317,0.334-0.542,0.594-0.791,0.828c-0.593,0.561-1.276,0.92-2.117,0.922c-1.319,0.004-2.142-0.699-2.143-2.02
			c0-0.905,0.174-1.816,0.323-2.715c0.189-1.131,0.433-2.252,0.662-3.424h0.719c-0.176,0.94-0.354,1.849-0.516,2.762
			c-0.17,0.953-0.402,1.902-0.47,2.861c-0.112,1.617,1.108,2.377,2.548,1.617c1.148-0.605,1.83-1.598,2.096-2.855
			c0.271-1.281,0.531-2.566,0.729-3.859c0.082-0.542,0.298-0.667,0.831-0.515c-0.261,1.37-0.53,2.735-0.777,4.104
			c-0.211,1.164-0.42,2.33-0.585,3.5C136.676,86.671,136.372,86.521,136.012,86.515"/>
		<path fill-rule="evenodd" clip-rule="evenodd" fill="#E41C25" d="M89.61,79.129c-0.39-0.024-0.705-0.043-1.074-0.067
			c0.055-0.209,0.097-0.373,0.136-0.522c1.043-0.096,0.989-0.112,1.314-1.144c0.228-0.723,0.538-1.455,0.968-2.075
			c0.616-0.89,1.84-1.12,2.817-0.665c-0.027,0.095-0.048,0.195-0.084,0.29c-0.031,0.081-0.079,0.155-0.116,0.226
			c-1.553-0.225-2.225,0.186-2.709,1.686c-0.164,0.505-0.258,1.033-0.402,1.629h1.9c0.05,0.474-0.121,0.633-0.547,0.619
			c-0.478-0.016-1.091-0.127-1.398,0.115c-0.283,0.221-0.246,0.858-0.334,1.315c-0.347,1.815-0.705,3.628-1.022,5.448
			c-0.091,0.523-0.314,0.671-0.834,0.484C88.682,84.045,89.14,81.618,89.61,79.129"/>
		<path fill-rule="evenodd" clip-rule="evenodd" fill="#E41C25" d="M123.248,79.127c-0.38-0.022-0.679-0.038-1.005-0.057
			c-0.022-0.293-0.084-0.57,0.345-0.567c0.248,0.002,0.496,0,0.754,0c0.172-0.646,0.297-1.261,0.5-1.849
			c0.381-1.106,1.007-2.009,2.27-2.19c0.408-0.058,0.837,0.033,1.334,0.06c-0.093,0.292-0.148,0.469-0.203,0.641
			c-1.943-0.222-3.052,0.984-3.045,3.327h1.857c-0.057,0.227-0.098,0.396-0.149,0.605c-0.462,0-0.909,0.022-1.356-0.008
			c-0.412-0.027-0.59,0.092-0.668,0.535c-0.373,2.137-0.791,4.266-1.196,6.396c-0.03,0.156-0.077,0.311-0.124,0.49h-0.698
			C122.322,84.06,122.778,81.628,123.248,79.127"/>
		<path fill-rule="evenodd" clip-rule="evenodd" fill="#E41C25" d="M103.824,86.21c0.086-0.2,0.155-0.361,0.205-0.481
			c0.564,0.116,1.093,0.291,1.629,0.321c0.799,0.045,1.463-0.452,1.706-1.152c0.254-0.732,0.037-1.443-0.616-1.969
			c-0.181-0.146-0.383-0.266-0.578-0.395c-1.092-0.725-1.461-1.707-1.039-2.76c0.404-1.01,1.592-1.648,2.741-1.449
			c0.345,0.061,0.679,0.189,1.056,0.297c-0.108,0.25-0.185,0.427-0.217,0.5c-0.641-0.043-1.222-0.166-1.783-0.102
			c-0.635,0.071-1.045,0.525-1.188,1.166c-0.142,0.627,0.095,1.133,0.574,1.523c0.263,0.217,0.562,0.389,0.84,0.584
			c0.896,0.627,1.219,1.494,0.972,2.539c-0.244,1.031-0.964,1.633-1.982,1.82C105.354,86.799,104.572,86.728,103.824,86.21"/>
		<path fill-rule="evenodd" clip-rule="evenodd" fill="#E41C25" d="M145.643,86.081c0.152,0.41,0.049,0.582-0.38,0.617
			c-1.28,0.103-1.913-0.418-1.778-1.705c0.14-1.334,0.443-2.65,0.68-3.973c0.109-0.615,0.229-1.228,0.354-1.894
			c-0.398-0.021-0.75-0.037-1.125-0.056c-0.066-0.336-0.063-0.561,0.373-0.574c0.916-0.031,0.959-0.043,1.059-0.936
			c0.062-0.553,0.334-0.73,0.871-0.771c-0.092,0.566-0.178,1.104-0.273,1.697h1.957c0.057,0.401-0.005,0.644-0.441,0.608
			c-0.037-0.003-0.072-0.001-0.108,0c-0.5,0.015-1.146-0.151-1.459,0.099c-0.308,0.244-0.296,0.91-0.388,1.397
			c-0.246,1.304-0.506,2.606-0.697,3.918C144.084,85.888,144.257,86.059,145.643,86.081"/>
		<path fill-rule="evenodd" clip-rule="evenodd" fill="#E41C25" d="M66.012,79.126c-0.417-0.021-0.782-0.041-1.192-0.062
			c0.047-0.21,0.081-0.363,0.117-0.523c0.079-0.014,0.148-0.032,0.217-0.034c0.998-0.031,1.024-0.026,1.189-1.034
			c0.082-0.492,0.369-0.639,0.867-0.699c-0.094,0.569-0.184,1.115-0.282,1.715h1.977c-0.019,0.219-0.033,0.385-0.053,0.609
			c-0.588,0-1.141,0.01-1.694-0.005c-0.286-0.007-0.403,0.094-0.455,0.387c-0.295,1.659-0.618,3.313-0.921,4.97
			c-0.041,0.228-0.036,0.467-0.034,0.699c0.004,0.711,0.267,0.945,0.994,0.938c0.156-0.002,0.313,0.076,0.471,0.119
			c-0.064,0.154-0.093,0.41-0.197,0.445c-1.227,0.416-2.215-0.38-2.019-1.672c0.269-1.771,0.616-3.531,0.929-5.294
			C65.956,79.513,65.979,79.342,66.012,79.126"/>
		<path fill-rule="evenodd" clip-rule="evenodd" fill="#E41C25" d="M183.962,86.509h-0.73c0.757-3.979,1.503-7.915,2.253-11.866
			h0.747C185.474,78.606,184.721,82.54,183.962,86.509"/>
		<path fill-rule="evenodd" clip-rule="evenodd" fill="#E41C25" d="M97.018,78.317c-0.044,0.254-0.078,0.443-0.112,0.635
			c-1.945,0.287-2.57,1.771-2.987,3.371c-0.316,1.209-0.513,2.452-0.716,3.688c-0.078,0.474-0.261,0.629-0.808,0.45
			c0.133-0.727,0.274-1.471,0.407-2.217c0.314-1.762,0.637-3.522,0.925-5.289c0.072-0.447,0.276-0.525,0.716-0.396
			c-0.06,0.492-0.122,0.996-0.203,1.657C94.938,79.139,95.588,78.192,97.018,78.317"/>
		<path fill-rule="evenodd" clip-rule="evenodd" fill="#E41C25" d="M126.029,86.472c0.181-0.969,0.369-1.932,0.541-2.895
			c0.277-1.554,0.549-3.107,0.814-4.664c0.076-0.441,0.068-0.447,0.706-0.35c-0.065,0.505-0.131,1.012-0.196,1.52
			c0.663-0.955,1.326-1.858,2.693-1.776c0.056,0.437,0.062,0.729-0.541,0.771c-0.709,0.047-1.162,0.588-1.568,1.129
			c-0.783,1.043-0.984,2.289-1.219,3.523c-0.145,0.758-0.325,1.511-0.415,2.275C126.781,86.542,126.539,86.624,126.029,86.472"/>
		<path fill-rule="evenodd" clip-rule="evenodd" fill="#E41C25" d="M140.886,78.534h0.726c-0.24,1.268-0.47,2.498-0.705,3.726
			c-0.236,1.233-0.501,2.464-0.703,3.702c-0.084,0.514-0.277,0.702-0.839,0.509C139.867,83.846,140.373,81.212,140.886,78.534"/>
		<path fill-rule="evenodd" clip-rule="evenodd" fill="#E41C25" d="M141.09,76.14c0.076-0.349,0.209-0.654,0.644-0.642
			c0.41,0.011,0.563,0.294,0.556,0.647c-0.01,0.385-0.227,0.657-0.633,0.654C141.256,76.798,141.123,76.504,141.09,76.14"/>
	</g>
</g>
</svg>
