<?xml version="1.0" encoding="utf-8"?>
<!-- Generator: Adobe Illustrator 16.0.0, SVG Export Plug-In . SVG Version: 6.00 Build 0)  -->
<!DOCTYPE svg PUBLIC "-//W3C//DTD SVG 1.1//EN" "http://www.w3.org/Graphics/SVG/1.1/DTD/svg11.dtd">
<svg version="1.1" id="Layer_1" xmlns="http://www.w3.org/2000/svg" xmlns:xlink="http://www.w3.org/1999/xlink" x="0px" y="0px"
	 width="350px" height="157.296px" viewBox="0 0 350 157.296" enable-background="new 0 0 350 157.296" xml:space="preserve">
<path fill-rule="evenodd" clip-rule="evenodd" fill="#FFFFFF" d="M199.775,56.845c0,1.554-0.067,3.111,0.018,4.66
	c0.102,1.894,0.256,3.791,0.818,5.622c0.082,0.267,0.144,0.642,0.467,0.663c0.402,0.024,0.454-0.396,0.544-0.679
	c0.356-1.129,0.535-2.297,0.718-3.461c0.904-5.824,1.773-11.654,3.295-17.362c1.899-7.128,4.52-13.949,8.805-20.017
	c6.078-8.601,13.992-14.316,24.768-15.307c4.891-0.45,9.564,0.393,13.916,2.788c5.488,3.022,9.451,7.528,12.62,12.831
	c1.666,2.788,3.239,5.636,5.173,8.259c3.049,4.14,6.902,7.056,12.07,7.969c4.016,0.71,8.033,0.38,12.045-0.049
	c5.035-0.536,10.054-1.204,15.14-1.168c7.812,0.056,14.974,2.149,21.458,6.529c3.471,2.344,6.105,5.411,7.913,9.172
	c3.14,6.54,3.528,13.447,2.563,20.499c-0.924,6.75-3.127,13.118-5.901,19.311c-2.497,5.572-5.586,10.826-8.567,16.14
	c-0.449,0.803-0.877,1.618-1.268,2.448c-0.197,0.424-0.613,0.996-0.192,1.334c0.351,0.281,0.818-0.224,1.179-0.486
	c0.863-0.63,1.637-1.369,2.364-2.146c7.665-8.155,13.522-17.435,17.193-28.029c2.901-8.378,4.043-16.943,2.178-25.726
	c-1.501-7.072-4.751-13.214-10.348-17.886c-9.457-7.894-20.526-10.854-32.679-10.356c-5.557,0.228-11.058,1.036-16.599,1.425
	c-4.934,0.345-8.981-1.011-11.627-5.455c-0.103-0.173-0.223-0.335-0.334-0.502c-1.925-2.901-3.596-5.96-5.556-8.839
	c-4.051-5.954-9.148-10.776-15.719-13.772c-10.492-4.782-20.912-3.921-31.014,1.22c-8.912,4.537-15.035,11.809-19.273,20.739
	C201.498,36.584,199.761,46.545,199.775,56.845"/>
<path fill-rule="evenodd" clip-rule="evenodd" fill="#FFFFFF" d="M295.436,80.665c-0.071-0.023-0.146-0.045-0.218-0.068v-0.921
	c0-8.007-0.01-16.014,0.016-24.021c0.002-0.716-0.189-0.926-0.912-0.916c-3.082,0.038-6.164,0.045-9.246-0.004
	c-0.801-0.012-0.99,0.219-0.988,1.001c0.025,12.328,0.017,24.656,0.017,36.983c0,8.21,0.017,16.418-0.024,24.627
	c-0.004,0.91,0.264,1.077,1.102,1.062c3.023-0.051,6.048-0.053,9.072,0.002c0.828,0.016,0.982-0.259,0.98-1.018
	c-0.025-8.267-0.021-16.534-0.007-24.801c0.002-0.858,0.044-1.734,0.218-2.572c0.84-4.068,4.332-7.08,8.493-7.193
	c3.355-0.093,6.13,1.261,7.574,4.753c0.771,1.865,1.078,3.819,1.084,5.812c0.021,8.037,0.019,16.072-0.008,24.11
	c-0.002,0.722,0.192,0.914,0.909,0.904c3.082-0.039,6.164-0.047,9.246,0.004c0.783,0.011,0.943-0.22,0.941-0.966
	c-0.027-8.353-0.005-16.706-0.025-25.059c-0.006-2.362-0.266-4.702-0.85-7.001c-2.89-11.375-13.566-13.611-20.949-10.195
	C299.224,76.41,297.042,78.199,295.436,80.665"/>
<path fill-rule="evenodd" clip-rule="evenodd" fill="#FFFFFF" d="M28.979,81.477c-0.084-0.516-0.142-0.76-0.162-1.007
	c-0.136-1.664-0.285-3.327-0.381-4.994c-0.031-0.536-0.168-0.759-0.751-0.753c-2.794,0.026-5.589,0.023-8.382,0.001
	c-0.523-0.004-0.687,0.12-0.646,0.675c0.248,3.273,0.309,6.554,0.307,9.835c-0.004,10.773,0.005,21.546-0.017,32.32
	c-0.002,0.683,0.176,0.86,0.854,0.853c3.139-0.038,6.279-0.045,9.418,0.002c0.759,0.012,0.947-0.175,0.945-0.939
	c-0.023-8.499,0.003-16.996,0.005-25.493c0-2.594,1.009-4.766,2.796-6.573c2.384-2.41,5.29-3.171,8.558-2.353
	c3.084,0.771,4.603,3.054,5.399,5.938c0.463,1.676,0.566,3.398,0.565,5.132c-0.005,7.806,0.005,15.612-0.016,23.419
	c-0.002,0.651,0.128,0.878,0.836,0.867c3.14-0.041,6.28-0.039,9.42,0c0.697,0.011,0.839-0.202,0.837-0.858
	c-0.022-7.922-0.014-15.843-0.015-23.765c0-1.642-0.002-3.282-0.198-4.915c-0.448-3.753-1.537-7.249-4.019-10.2
	c-5.591-6.649-16.76-6.3-22.673-0.6C30.668,79.023,29.796,80.074,28.979,81.477"/>
<path fill-rule="evenodd" clip-rule="evenodd" fill="#FFFFFF" d="M171.42,100.713c0-5.617,0.014-11.234-0.017-16.851
	c-0.003-0.729,0.207-0.917,0.919-0.905c2.505,0.042,5.012-0.017,7.518,0.035c0.83,0.018,1.15-0.138,1.113-1.064
	c-0.081-2.07-0.057-4.147-0.008-6.221c0.018-0.765-0.155-1.041-0.984-1.021c-2.621,0.057-5.243,0.018-7.864,0.022
	c-0.4,0.001-0.729,0.013-0.727-0.562c0.007-1.899-0.031-3.797,0.4-5.669c0.781-3.393,2.759-5.375,5.974-5.839
	c1.526-0.222,3.04,0.034,4.525,0.422c1.148,0.299,1.123,0.298,1.223-0.933c0.169-2.092,0.294-4.192,0.596-6.267
	c0.131-0.894-0.144-1.146-0.904-1.341c-2.788-0.718-5.607-0.989-8.465-0.604c-5.79,0.782-10.109,3.616-12.484,9.091
	c-1.506,3.473-1.953,7.137-1.865,10.881c0.015,0.641-0.165,0.853-0.82,0.832c-1.467-0.048-2.938,0.004-4.407-0.024
	c-0.518-0.01-0.701,0.142-0.695,0.68c0.027,2.306,0.025,4.609,0.001,6.914c-0.005,0.518,0.133,0.708,0.676,0.695
	c1.353-0.035,2.707-0.011,4.061-0.011c1.171,0,1.172,0,1.172,1.136c0,11.09,0.01,22.18-0.021,33.27
	c-0.002,0.855,0.237,1.042,1.055,1.028c2.995-0.05,5.992-0.062,8.987,0.007c0.923,0.021,1.066-0.282,1.06-1.11
	C171.403,111.774,171.42,106.244,171.42,100.713"/>
<path fill-rule="evenodd" clip-rule="evenodd" fill="#FFFFFF" d="M262.296,119.426c0.639,0.057,1.67-0.082,2.698-0.184
	c3.306-0.325,6.425-1.207,9.235-3.068c6.887-4.561,7.014-14.761,1.647-19.473c-2.183-1.916-4.685-3.218-7.366-4.229
	c-2.125-0.802-4.311-1.479-6.193-2.8c-2.205-1.545-2.58-4.436-0.809-6.301c1.064-1.121,2.475-1.54,3.979-1.64
	c3.393-0.221,6.572,0.581,9.563,2.133c0.624,0.322,0.754,0.13,0.899-0.414c0.554-2.082,1.08-4.176,1.725-6.229
	c0.248-0.788-0.01-1.057-0.656-1.329c-4.906-2.062-9.99-2.691-15.213-1.718c-3.787,0.704-7.101,2.388-9.455,5.554
	c-3.606,4.846-3.843,11.988,1.783,16.434c2.293,1.811,4.861,3.054,7.585,4.03c1.87,0.67,3.745,1.332,5.361,2.537
	c1.61,1.199,2.099,2.853,1.788,4.742c-0.277,1.697-1.424,2.715-2.977,3.295c-0.892,0.334-1.824,0.509-2.781,0.553
	c-4.131,0.188-7.976-0.854-11.617-2.734c-0.557-0.288-0.773-0.233-0.932,0.397c-0.552,2.174-1.119,4.344-1.752,6.494
	c-0.189,0.647-0.018,0.91,0.547,1.18C253.324,118.554,257.527,119.349,262.296,119.426"/>
<path fill-rule="evenodd" clip-rule="evenodd" fill="#FFFFFF" d="M183.103,99.479h0.028c0,6.018,0.011,12.038-0.014,18.057
	c-0.003,0.67,0.161,0.879,0.854,0.87c3.14-0.038,6.278-0.041,9.418,0.001c0.715,0.011,0.842-0.23,0.84-0.879
	c-0.022-7.142-0.006-14.285-0.022-21.427c-0.003-1.274,0.093-2.533,0.368-3.769c0.859-3.841,2.932-6.639,6.834-7.83
	c1.684-0.516,3.396-0.514,5.115-0.238c1.051,0.168,1.052,0.187,1.053-0.893c0.002-2.823-0.023-5.646,0.018-8.468
	c0.01-0.675-0.16-1.008-0.852-1.062c-1.439-0.114-2.876-0.16-4.288,0.213c-4.46,1.179-7.349,4.094-9.103,8.261
	c-0.103,0.239-0.092,0.682-0.467,0.606c-0.291-0.059-0.174-0.449-0.183-0.691c-0.087-2.184-0.172-4.369-0.229-6.555
	c-0.018-0.621-0.18-0.924-0.897-0.914c-2.677,0.04-5.356,0.035-8.034,0.002c-0.64-0.008-0.773,0.225-0.74,0.803
	c0.12,2.038,0.274,4.077,0.286,6.116C183.126,87.613,183.103,93.546,183.103,99.479"/>
<path fill-rule="evenodd" clip-rule="evenodd" fill="#FFFFFF" d="M11.755,96.614c0-6.997-0.007-13.993,0.012-20.99
	c0.002-0.632-0.103-0.904-0.832-0.896c-3.195,0.043-6.391,0.035-9.587,0.004c-0.623-0.007-0.749,0.192-0.748,0.776
	c0.015,14.05,0.016,28.102-0.003,42.151c-0.001,0.628,0.188,0.748,0.772,0.742c3.167-0.029,6.334-0.036,9.501,0.004
	c0.711,0.01,0.906-0.159,0.903-0.89C11.744,110.549,11.755,103.581,11.755,96.614"/>
<path fill-rule="evenodd" clip-rule="evenodd" fill="#FFFFFF" d="M308.93,0.002c-0.231,0-0.461-0.007-0.69,0.004
	c-0.143,0.007-0.283,0.042-0.426,0.062c-3.451,0.509-6.439,2.061-9.176,4.141c-4.598,3.494-8.121,7.949-11.271,12.73
	c-1.599,2.427-3.082,4.924-4.34,7.548c-0.934,1.946-0.324,4.054,1.432,5.128c1.806,1.107,3.785,0.669,5.152-1.135
	c0.348-0.458,0.703-0.91,1.059-1.363c6.068-7.74,13.572-13.53,22.902-16.83c1.325-0.468,2.683-0.846,4.012-1.307
	c1.42-0.493,1.867-1.424,1.359-2.75c-0.135-0.347-0.293-0.7-0.514-0.994C316.055,2.059,312.847,0.377,308.93,0.002"/>
<path fill-rule="evenodd" clip-rule="evenodd" fill="#FFFFFF" d="M6.086,68.519c3.675,0.013,6.302-2.435,6.309-5.877
	c0.008-3.546-2.527-6.089-6.092-6.109C2.637,56.51,0.018,58.997,0,62.518C-0.019,65.999,2.525,68.507,6.086,68.519"/>
<path fill-rule="evenodd" clip-rule="evenodd" fill="#FFFFFF" d="M95.959,111.698c-0.947,1.198-1.811,2.413-2.922,3.421
	c-3.671,3.335-8.056,4.609-12.905,4.198c-6.673-0.567-11.584-4.072-14.408-9.994c-4.23-8.87-4.118-17.903,0.847-26.463
	c4.941-8.52,14.44-10.768,22.114-8.064c2.482,0.875,4.526,2.357,6.048,4.626c0.186-0.324,0.111-0.636,0.111-0.925
	c0.005-7.603,0.015-15.207-0.013-22.81c-0.003-0.738,0.141-0.976,0.932-0.963c3.081,0.054,6.164,0.056,9.244,0
	c0.799-0.015,0.922,0.236,0.921,0.961c-0.021,16.878-0.036,33.756-0.001,50.634c0.008,3.737,0.194,7.475,0.33,11.211
	c0.023,0.623-0.048,0.892-0.787,0.879c-2.793-0.05-5.587-0.034-8.381-0.008c-0.547,0.005-0.715-0.129-0.741-0.702
	C96.259,115.697,96.096,113.698,95.959,111.698 M94.849,96.561c0-1.625,0.014-2.92-0.003-4.217c-0.039-2.928-1.04-5.476-3.183-7.484
	c-4.777-4.479-12.496-3.014-15.523,3.023c-2.597,5.183-2.727,10.59-0.668,15.965c1.765,4.61,5.683,6.949,10.517,6.582
	c4.15-0.314,7.556-3.476,8.601-8.001C95.062,100.381,94.755,98.298,94.849,96.561"/>
<path fill-rule="evenodd" clip-rule="evenodd" fill="#FFFFFF" d="M295.436,80.665c1.606-2.466,3.788-4.255,6.425-5.476
	c7.383-3.416,18.06-1.18,20.949,10.195c0.584,2.299,0.844,4.639,0.85,7.001c0.021,8.353-0.002,16.706,0.025,25.059
	c0.002,0.746-0.158,0.977-0.941,0.966c-3.082-0.051-6.164-0.043-9.246-0.004c-0.717,0.01-0.911-0.183-0.909-0.904
	c0.026-8.038,0.028-16.073,0.008-24.11c-0.006-1.993-0.313-3.947-1.084-5.812c-1.444-3.492-4.219-4.846-7.574-4.753
	c-4.161,0.113-7.653,3.125-8.493,7.193c-0.174,0.838-0.216,1.714-0.218,2.572c-0.015,8.267-0.019,16.534,0.007,24.801
	c0.002,0.759-0.152,1.033-0.98,1.018c-3.024-0.055-6.049-0.053-9.072-0.002c-0.838,0.015-1.105-0.152-1.102-1.062
	c0.041-8.209,0.024-16.417,0.024-24.627c0-12.327,0.009-24.655-0.017-36.983c-0.002-0.782,0.188-1.013,0.988-1.001
	c3.082,0.049,6.164,0.042,9.246,0.004c0.723-0.01,0.914,0.2,0.912,0.916c-0.025,8.008-0.016,16.015-0.016,24.021v0.921
	C295.291,80.62,295.365,80.642,295.436,80.665"/>
<path fill-rule="evenodd" clip-rule="evenodd" fill="#FFFFFF" d="M154.667,95.795c0.012,4.746-0.743,8.847-2.811,12.617
	c-3.386,6.174-8.762,9.518-15.586,10.651c-4.826,0.802-9.538,0.291-13.993-1.802c-5.717-2.686-9.333-7.204-10.968-13.248
	c-1.513-5.591-1.35-11.201,0.701-16.633c2.836-7.514,8.43-11.812,16.249-13.226c4.643-0.838,9.254-0.58,13.656,1.251
	c6.781,2.822,10.652,8.053,12.201,15.121C154.531,92.42,154.708,94.337,154.667,95.795 M143.254,96.506
	c0.025-1.971-0.212-3.909-0.741-5.805c-0.84-3.007-2.201-5.693-4.911-7.47c-3.635-2.382-10.55-2.2-13.713,4.114
	c-2.544,5.078-2.689,10.395-1.11,15.783c0.787,2.687,2.193,5.007,4.548,6.63c4.433,3.057,10.25,1.721,13.271-3.042
	C142.573,103.601,143.222,100.131,143.254,96.506"/>
<path fill-rule="evenodd" clip-rule="evenodd" fill="#FFFFFF" d="M28.979,81.477c0.817-1.402,1.689-2.453,2.68-3.408
	c5.913-5.7,17.082-6.05,22.673,0.6c2.482,2.951,3.571,6.447,4.019,10.2c0.196,1.633,0.198,3.273,0.198,4.915
	c0.001,7.922-0.007,15.843,0.015,23.765c0.002,0.656-0.14,0.869-0.837,0.858c-3.14-0.039-6.28-0.041-9.42,0
	c-0.708,0.011-0.838-0.216-0.836-0.867c0.021-7.807,0.011-15.613,0.016-23.419c0.001-1.733-0.102-3.456-0.565-5.132
	c-0.796-2.885-2.315-5.168-5.399-5.938c-3.268-0.818-6.174-0.058-8.558,2.353c-1.787,1.808-2.796,3.979-2.796,6.573
	c-0.002,8.497-0.028,16.994-0.005,25.493c0.002,0.765-0.186,0.951-0.945,0.939c-3.139-0.047-6.279-0.04-9.418-0.002
	c-0.678,0.008-0.856-0.17-0.854-0.853c0.022-10.774,0.013-21.547,0.017-32.32c0.002-3.281-0.059-6.562-0.307-9.835
	c-0.041-0.555,0.123-0.679,0.646-0.675c2.793,0.022,5.588,0.025,8.382-0.001c0.583-0.006,0.72,0.217,0.751,0.753
	c0.096,1.667,0.245,3.33,0.381,4.994C28.837,80.717,28.895,80.961,28.979,81.477"/>
<path fill-rule="evenodd" clip-rule="evenodd" fill="#FFFFFF" d="M232.082,99.699h-13.482c-1.148,0-1.178,0.005-1.027,1.148
	c0.559,4.243,2.797,7.242,6.762,8.868c2.74,1.123,5.617,1.317,8.559,1.161c3.296-0.174,6.521-0.629,9.632-1.766
	c0.423-0.154,0.546,0.023,0.626,0.417c0.443,2.167,0.891,4.335,1.387,6.492c0.123,0.54-0.091,0.684-0.529,0.843
	c-3.147,1.152-6.383,1.901-9.717,2.261c-3.683,0.396-7.349,0.453-10.987-0.347c-8.634-1.898-14.025-7.133-15.835-15.798
	c-1.454-6.962-0.536-13.655,3.234-19.775c3.307-5.37,8.17-8.47,14.452-9.253c3.712-0.463,7.362-0.228,10.854,1.223
	c4.582,1.903,7.543,5.376,9.283,9.926c1.709,4.465,2.143,9.091,1.524,13.832c-0.084,0.647-0.302,0.783-0.907,0.78
	C241.3,99.688,236.691,99.699,232.082,99.699 M227.03,91.94c2.91,0,5.819-0.024,8.729,0.019c0.713,0.01,0.914-0.232,0.832-0.883
	c-0.084-0.655-0.094-1.321-0.209-1.971c-1.487-8.437-9.623-9.36-14.168-6.115c-2.842,2.029-4.098,5.028-4.659,8.375
	c-0.097,0.576,0.243,0.58,0.659,0.58C221.154,91.937,224.091,91.94,227.03,91.94"/>
<path fill-rule="evenodd" clip-rule="evenodd" fill="#FFFFFF" d="M171.42,100.713c0,5.531-0.017,11.062,0.018,16.592
	c0.006,0.828-0.137,1.132-1.06,1.11c-2.995-0.069-5.992-0.057-8.987-0.007c-0.818,0.014-1.057-0.173-1.055-1.028
	c0.031-11.09,0.021-22.18,0.021-33.27c0-1.136-0.001-1.136-1.172-1.136c-1.354,0-2.708-0.024-4.061,0.011
	c-0.543,0.013-0.681-0.178-0.676-0.695c0.024-2.305,0.026-4.608-0.001-6.914c-0.006-0.538,0.177-0.689,0.695-0.68
	c1.469,0.028,2.94-0.023,4.407,0.024c0.655,0.021,0.835-0.191,0.82-0.832c-0.088-3.744,0.359-7.408,1.865-10.881
	c2.375-5.475,6.694-8.309,12.484-9.091c2.858-0.386,5.677-0.114,8.465,0.604c0.761,0.194,1.035,0.447,0.904,1.341
	c-0.302,2.074-0.427,4.175-0.596,6.267c-0.1,1.23-0.074,1.231-1.223,0.933c-1.485-0.388-2.999-0.644-4.525-0.422
	c-3.215,0.464-5.193,2.446-5.974,5.839c-0.431,1.872-0.393,3.77-0.4,5.669c-0.002,0.574,0.327,0.562,0.727,0.562
	c2.621-0.005,5.243,0.034,7.864-0.022c0.829-0.02,1.002,0.257,0.984,1.021c-0.049,2.073-0.073,4.15,0.008,6.221
	c0.037,0.927-0.283,1.082-1.113,1.064c-2.506-0.052-5.013,0.007-7.518-0.035c-0.712-0.012-0.922,0.176-0.919,0.905
	C171.434,89.479,171.42,95.096,171.42,100.713"/>
<path fill-rule="evenodd" clip-rule="evenodd" fill="#FFFFFF" d="M262.296,119.426c-4.77-0.077-8.973-0.872-12.939-2.77
	c-0.564-0.27-0.736-0.532-0.547-1.18c0.633-2.15,1.2-4.32,1.752-6.494c0.158-0.631,0.375-0.686,0.932-0.397
	c3.642,1.88,7.486,2.922,11.617,2.734c0.957-0.044,1.89-0.219,2.781-0.553c1.553-0.58,2.699-1.598,2.977-3.295
	c0.311-1.89-0.178-3.543-1.788-4.742c-1.616-1.205-3.491-1.867-5.361-2.537c-2.724-0.977-5.292-2.22-7.585-4.03
	c-5.626-4.445-5.39-11.588-1.783-16.434c2.354-3.166,5.668-4.85,9.455-5.554c5.223-0.974,10.307-0.345,15.213,1.718
	c0.646,0.272,0.904,0.541,0.656,1.329c-0.645,2.054-1.171,4.147-1.725,6.229c-0.146,0.544-0.275,0.736-0.899,0.414
	c-2.991-1.552-6.171-2.354-9.563-2.133c-1.504,0.1-2.914,0.519-3.979,1.64c-1.771,1.865-1.396,4.756,0.809,6.301
	c1.883,1.321,4.068,1.998,6.193,2.8c2.682,1.011,5.184,2.312,7.366,4.229c5.366,4.712,5.239,14.912-1.647,19.473
	c-2.811,1.861-5.93,2.743-9.235,3.068C263.966,119.344,262.935,119.482,262.296,119.426"/>
<path fill-rule="evenodd" clip-rule="evenodd" fill="#FFFFFF" d="M183.103,99.479c0-5.933,0.023-11.865-0.015-17.797
	c-0.012-2.039-0.166-4.078-0.286-6.116c-0.033-0.578,0.101-0.811,0.74-0.803c2.678,0.033,5.357,0.038,8.034-0.002
	c0.718-0.01,0.88,0.293,0.897,0.914c0.058,2.186,0.143,4.371,0.229,6.555c0.009,0.242-0.108,0.633,0.183,0.691
	c0.375,0.075,0.364-0.367,0.467-0.606c1.754-4.167,4.643-7.082,9.103-8.261c1.412-0.373,2.849-0.327,4.288-0.213
	c0.691,0.055,0.861,0.388,0.852,1.062c-0.041,2.822-0.016,5.645-0.018,8.468c-0.001,1.079-0.002,1.061-1.053,0.893
	c-1.719-0.275-3.432-0.277-5.115,0.238c-3.902,1.191-5.975,3.989-6.834,7.83c-0.275,1.235-0.371,2.494-0.368,3.769
	c0.017,7.142,0,14.285,0.022,21.427c0.002,0.648-0.125,0.89-0.84,0.879c-3.14-0.042-6.278-0.039-9.418-0.001
	c-0.693,0.009-0.857-0.2-0.854-0.87c0.024-6.019,0.014-12.039,0.014-18.057H183.103z"/>
<path fill-rule="evenodd" clip-rule="evenodd" fill="#FFFFFF" d="M11.755,96.614c0,6.967-0.012,13.935,0.018,20.902
	c0.003,0.73-0.192,0.899-0.903,0.89c-3.167-0.04-6.334-0.033-9.501-0.004c-0.584,0.006-0.773-0.114-0.772-0.742
	c0.019-14.05,0.018-28.102,0.003-42.151c-0.001-0.584,0.125-0.783,0.748-0.776c3.196,0.031,6.392,0.039,9.587-0.004
	c0.729-0.009,0.834,0.264,0.832,0.896C11.749,82.621,11.755,89.617,11.755,96.614"/>
<path fill-rule="evenodd" clip-rule="evenodd" fill="#FFFFFF" d="M199.775,56.845c-0.014-10.3,1.723-20.261,6.168-29.631
	c4.238-8.931,10.361-16.202,19.273-20.739c10.102-5.141,20.521-6.002,31.014-1.22c6.57,2.996,11.668,7.818,15.719,13.772
	c1.96,2.879,3.631,5.938,5.556,8.839c0.111,0.167,0.231,0.329,0.334,0.502c2.646,4.444,6.693,5.8,11.627,5.455
	c5.541-0.389,11.042-1.197,16.599-1.425c12.152-0.498,23.222,2.463,32.679,10.356c5.597,4.672,8.847,10.813,10.348,17.886
	c1.865,8.782,0.724,17.348-2.178,25.726c-3.671,10.595-9.528,19.874-17.193,28.029c-0.728,0.776-1.501,1.516-2.364,2.146
	c-0.36,0.263-0.828,0.768-1.179,0.486c-0.421-0.338-0.005-0.91,0.192-1.334c0.391-0.83,0.818-1.646,1.268-2.448
	c2.981-5.313,6.07-10.567,8.567-16.14c2.774-6.192,4.978-12.561,5.901-19.311c0.965-7.052,0.576-13.959-2.563-20.499
	c-1.808-3.761-4.442-6.828-7.913-9.172c-6.484-4.38-13.646-6.474-21.458-6.529c-5.086-0.036-10.104,0.632-15.14,1.168
	c-4.012,0.429-8.029,0.759-12.045,0.049c-5.168-0.913-9.021-3.829-12.07-7.969c-1.934-2.623-3.507-5.471-5.173-8.259
	c-3.169-5.303-7.132-9.809-12.62-12.831c-4.352-2.396-9.025-3.238-13.916-2.788c-10.775,0.99-18.689,6.706-24.768,15.307
	c-4.285,6.067-6.905,12.889-8.805,20.017c-1.521,5.708-2.391,11.538-3.295,17.362c-0.183,1.164-0.361,2.332-0.718,3.461
	c-0.09,0.282-0.142,0.703-0.544,0.679c-0.323-0.021-0.385-0.396-0.467-0.663c-0.562-1.831-0.717-3.729-0.818-5.622
	C199.708,59.956,199.775,58.398,199.775,56.845"/>
<path fill-rule="evenodd" clip-rule="evenodd" fill="#FFFFFF" d="M308.93,0.002c3.917,0.375,7.125,2.057,9.499,5.234
	c0.221,0.294,0.379,0.647,0.514,0.994c0.508,1.326,0.061,2.257-1.359,2.75c-1.329,0.461-2.687,0.839-4.012,1.307
	c-9.33,3.3-16.834,9.09-22.902,16.83c-0.355,0.453-0.711,0.905-1.059,1.363c-1.367,1.804-3.347,2.242-5.152,1.135
	c-1.756-1.074-2.365-3.182-1.432-5.128c1.258-2.624,2.741-5.121,4.34-7.548c3.15-4.781,6.674-9.236,11.271-12.73
	c2.736-2.08,5.725-3.632,9.176-4.141c0.143-0.021,0.283-0.056,0.426-0.062C308.469-0.005,308.699,0.002,308.93,0.002"/>
<path fill-rule="evenodd" clip-rule="evenodd" fill="#FFFFFF" d="M6.086,68.519C2.525,68.507-0.019,65.999,0,62.518
	c0.018-3.521,2.637-6.008,6.303-5.985c3.565,0.021,6.1,2.563,6.092,6.109C12.388,66.084,9.761,68.531,6.086,68.519"/>
<path fill-rule="evenodd" clip-rule="evenodd" fill="#FFFFFF" d="M264.878,151.15c-0.33,1.778-0.703,3.488-0.946,5.218
	c-0.129,0.917-0.521,1.101-1.437,0.783c0.232-1.275,0.463-2.559,0.701-3.841c0.934-5.061,1.887-10.115,2.789-15.181
	c0.145-0.815,0.557-0.842,1.283-0.653c-0.1,0.849-0.198,1.694-0.323,2.762c0.328-0.366,0.511-0.564,0.688-0.768
	c0.996-1.135,2.164-1.99,3.674-2.324c2.533-0.561,4.6,0.752,5.141,3.282c0.84,3.934-1.57,8.896-5.184,10.636
	c-1.816,0.871-3.698,0.858-5.604,0.331C265.425,151.329,265.194,151.25,264.878,151.15 M275.251,142.358
	c-0.032-1.735-0.322-3.21-1.924-3.946c-1.625-0.746-3.004-0.049-4.229,0.99c-1.46,1.238-2.344,2.868-2.799,4.697
	c-0.412,1.67-0.641,3.386-1.023,5.064c-0.145,0.627,0.107,0.875,0.602,1.052c2.168,0.774,4.209,0.61,6.01-0.92
	C274.067,147.444,275.113,145.036,275.251,142.358"/>
<path fill-rule="evenodd" clip-rule="evenodd" fill="#FFFFFF" d="M306.875,151.146c-0.314,1.72-0.635,3.407-0.931,5.1
	c-0.199,1.141-0.214,1.164-1.465,0.928c1.235-6.553,2.472-13.106,3.722-19.731h1.098c-0.119,0.872-0.234,1.72-0.326,2.387
	c0.43-0.343,0.953-0.73,1.439-1.156c1.366-1.19,2.91-1.884,4.746-1.586c1.943,0.315,3.085,1.703,3.396,3.976
	c0.496,3.62-1.752,8.09-4.94,9.816C311.453,152.049,309.23,151.95,306.875,151.146 M310.145,150.648
	c0.006,0.033,0.014,0.066,0.02,0.1c0.669-0.143,1.369-0.204,2.001-0.441c3.389-1.278,5.875-6.263,4.9-9.743
	c-0.578-2.062-2.43-2.971-4.42-2.127c-1.945,0.822-3.186,2.384-3.846,4.294c-0.609,1.762-0.955,3.623-1.328,5.458
	c-0.375,1.848-0.021,2.24,1.922,2.415C309.642,150.626,309.894,150.633,310.145,150.648"/>
<path fill-rule="evenodd" clip-rule="evenodd" fill="#FFFFFF" d="M121.194,151.333c1.317-6.923,2.623-13.788,3.938-20.696h1.291
	c-0.597,3.082-1.188,6.126-1.768,9.115c0.516-0.441,0.957-0.961,1.516-1.266c1.003-0.546,2.035-1.176,3.13-1.389
	c2.657-0.518,4.516,1.444,4.178,4.339c-0.219,1.866-0.602,3.715-0.929,5.568c-0.207,1.174-0.513,2.335-0.655,3.516
	c-0.113,0.938-0.567,1.069-1.443,0.813c0.396-2.118,0.8-4.231,1.183-6.348c0.213-1.174,0.441-2.346,0.576-3.528
	c0.281-2.475-1.546-3.939-3.869-3.06c-2.386,0.904-3.815,2.747-4.389,5.173c-0.541,2.288-0.941,4.613-1.306,6.938
	C122.502,151.427,122.099,151.599,121.194,151.333"/>
<path fill-rule="evenodd" clip-rule="evenodd" fill="#FFFFFF" d="M196.194,139.802c0.243-0.27,0.476-0.548,0.731-0.806
	c1.509-1.518,3.275-2.328,5.445-1.81c1.424,0.34,2.406,1.429,2.358,2.913c-0.06,1.87-0.335,3.738-0.606,5.594
	c-0.238,1.613-0.643,3.2-0.888,4.812c-0.134,0.881-0.532,1.117-1.452,0.822c0.281-1.504,0.578-3.023,0.846-4.55
	c0.312-1.759,0.69-3.514,0.875-5.287c0.354-3.438-2.549-3.907-4.5-2.825c-2.146,1.19-3.385,3.049-3.859,5.418
	c-0.428,2.121-0.822,4.252-1.156,6.391c-0.146,0.929-0.566,1.152-1.455,0.861c0.456-2.443,0.904-4.875,1.368-7.304
	c0.787-4.13,1.616-8.252,2.353-12.391c0.166-0.938,0.496-1.275,1.492-0.953c-0.584,3.003-1.17,6.017-1.756,9.032
	C196.059,139.746,196.126,139.773,196.194,139.802"/>
<path fill-rule="evenodd" clip-rule="evenodd" fill="#FFFFFF" d="M296.35,151.731c-2.974,0.011-5.03-1.911-5.218-5.156
	c-0.188-3.247,0.922-6.048,3.488-8.163c1.021-0.844,2.225-1.298,3.541-1.383c2.881-0.186,5.031,1.461,5.465,4.33
	c0.526,3.469-0.541,6.452-3.146,8.824C299.332,151.231,297.938,151.776,296.35,151.731 M302.408,143.05
	c0-0.25,0.014-0.503-0.002-0.753c-0.156-2.655-1.939-4.396-4.328-4.185c-1.376,0.122-2.496,0.793-3.414,1.805
	c-1.504,1.658-2.139,3.666-2.248,5.853c-0.101,1.988,0.948,3.878,2.449,4.547c1.656,0.739,3.523,0.292,5.051-1.253
	C301.558,147.401,302.332,145.366,302.408,143.05"/>
<path fill-rule="evenodd" clip-rule="evenodd" fill="#FFFFFF" d="M137.757,144.776c-0.172,1.886-0.271,3.772,1.355,5.055
	c1.913,1.508,3.926,0.708,5.987-0.116c0.116,0.266,0.245,0.562,0.398,0.914c-2.011,1.146-4.081,1.476-6.212,0.793
	c-1.654-0.529-2.441-1.906-2.791-3.527c-0.751-3.488,1.115-7.978,4.107-9.903c1.23-0.791,2.564-1.157,4.037-0.881
	c1.365,0.256,2.319,0.991,2.614,2.374c0.296,1.394-0.068,2.628-1.208,3.547c-1.222,0.986-2.702,1.308-4.211,1.469
	C140.524,144.641,139.205,144.684,137.757,144.776 M138.081,143.618c2.216,0.011,4.354,0.022,6.336-0.939
	c1.371-0.665,1.934-1.968,1.463-3.176c-0.411-1.055-1.734-1.604-3.115-1.29C140.615,138.7,138.5,141.098,138.081,143.618"/>
<path fill-rule="evenodd" clip-rule="evenodd" fill="#FFFFFF" d="M178.63,149.753c0.092,0.263,0.191,0.552,0.318,0.914
	c-2.111,1.12-4.254,1.516-6.461,0.627c-1.646-0.663-2.399-2.137-2.565-3.799c-0.372-3.728,0.872-6.865,3.804-9.249
	c1.05-0.855,2.3-1.268,3.677-1.226c1.688,0.051,2.938,0.917,3.307,2.301c0.414,1.556-0.146,3.257-1.602,3.975
	c-1.186,0.583-2.521,0.929-3.827,1.187c-1.098,0.215-2.249,0.178-3.378,0.195c-0.52,0.008-0.786,0.186-0.748,0.702
	c0.065,0.873,0.042,1.774,0.26,2.609c0.544,2.085,2.386,3.042,4.767,2.528C176.972,150.349,177.731,150.039,178.63,149.753
	 M171.428,143.615c2.354,0.021,4.496,0.018,6.48-0.937c1.352-0.65,1.902-1.893,1.48-3.094c-0.396-1.123-1.735-1.749-3.148-1.37
	C173.528,138.941,172.369,141.072,171.428,143.615"/>
<path fill-rule="evenodd" clip-rule="evenodd" fill="#FFFFFF" d="M280.034,144.776c-0.245,1.816-0.259,3.663,1.229,4.954
	c1.914,1.657,4.01,0.83,6.033,0.02c0.533,0.832,0.506,0.951-0.359,1.332c-1.48,0.649-3.039,0.812-4.614,0.567
	c-2.015-0.312-3.466-1.999-3.649-4.456c-0.273-3.654,1.031-6.715,3.93-9.011c1.093-0.864,2.387-1.246,3.791-1.156
	c1.543,0.099,2.746,0.969,3.086,2.21c0.414,1.522-0.02,3.188-1.365,3.896c-1.247,0.654-2.664,1.062-4.055,1.345
	C282.785,144.736,281.445,144.685,280.034,144.776 M280.224,143.616c2.309,0.015,4.414,0.016,6.381-0.899
	c1.4-0.65,1.998-1.891,1.578-3.131c-0.377-1.116-1.727-1.742-3.149-1.368C282.31,138.934,281.161,141.072,280.224,143.616"/>
<path fill-rule="evenodd" clip-rule="evenodd" fill="#FFFFFF" d="M335.466,149.668c0.133,0.393,0.221,0.653,0.338,1.003
	c-2.121,1.114-4.285,1.527-6.523,0.604c-1.527-0.632-2.276-2.008-2.467-3.562c-0.467-3.8,0.762-6.999,3.74-9.449
	c1.102-0.907,2.416-1.322,3.859-1.238c1.609,0.092,2.719,0.905,3.125,2.271c0.437,1.471-0.021,3.133-1.398,3.861
	c-1.218,0.646-2.609,1.028-3.97,1.318c-1.091,0.232-2.248,0.188-3.377,0.2c-0.565,0.006-0.826,0.183-0.771,0.756
	c0.003,0.032,0,0.062,0,0.095c-0.153,4.401,2.503,6.221,6.597,4.519C334.873,149.939,335.121,149.822,335.466,149.668
	 M328.285,143.606c2.356,0.037,4.522,0.028,6.53-0.953c1.323-0.646,1.857-1.926,1.407-3.116c-0.408-1.076-1.734-1.686-3.083-1.337
	C330.417,138.904,329.252,141.029,328.285,143.606"/>
<path fill-rule="evenodd" clip-rule="evenodd" fill="#FFFFFF" d="M238.021,151.401c0.131-0.905,0.247-1.707,0.395-2.729
	c-0.557,0.584-0.949,1.038-1.385,1.449c-1.037,0.979-2.232,1.608-3.705,1.612c-2.309,0.008-3.748-1.225-3.75-3.533
	c0-1.584,0.305-3.178,0.567-4.75c0.33-1.979,0.756-3.943,1.156-5.992h1.258c-0.308,1.645-0.617,3.234-0.901,4.832
	c-0.298,1.667-0.705,3.328-0.822,5.01c-0.198,2.828,1.941,4.158,4.459,2.828c2.009-1.062,3.203-2.795,3.668-4.999
	c0.475-2.241,0.929-4.489,1.273-6.753c0.145-0.948,0.523-1.166,1.455-0.899c-0.456,2.398-0.927,4.787-1.359,7.183
	c-0.369,2.037-0.734,4.077-1.023,6.127C239.181,151.675,238.652,151.41,238.021,151.401"/>
<path fill-rule="evenodd" clip-rule="evenodd" fill="#FFFFFF" d="M156.817,138.476c-0.683-0.042-1.234-0.076-1.88-0.117
	c0.096-0.368,0.171-0.654,0.239-0.916c1.825-0.167,1.731-0.196,2.299-1.999c0.399-1.268,0.942-2.547,1.694-3.633
	c1.077-1.556,3.22-1.961,4.929-1.164c-0.047,0.165-0.083,0.341-0.146,0.508c-0.054,0.142-0.139,0.271-0.203,0.396
	c-2.718-0.395-3.894,0.325-4.742,2.946c-0.286,0.887-0.45,1.812-0.702,2.854h3.325c0.087,0.828-0.212,1.107-0.958,1.083
	c-0.836-0.026-1.908-0.224-2.446,0.2c-0.495,0.389-0.431,1.504-0.584,2.304c-0.608,3.176-1.234,6.349-1.789,9.534
	c-0.16,0.917-0.549,1.174-1.46,0.848C155.193,147.078,155.995,142.832,156.817,138.476"/>
<path fill-rule="evenodd" clip-rule="evenodd" fill="#FFFFFF" d="M215.683,138.473c-0.664-0.038-1.188-0.068-1.757-0.101
	c-0.042-0.513-0.147-0.999,0.601-0.991c0.436,0.003,0.871,0,1.32,0c0.301-1.131,0.52-2.207,0.875-3.236
	c0.666-1.936,1.762-3.516,3.973-3.832c0.714-0.102,1.465,0.057,2.334,0.104c-0.162,0.511-0.26,0.819-0.354,1.12
	c-3.401-0.388-5.342,1.722-5.329,5.824h3.25c-0.099,0.395-0.171,0.691-0.261,1.058c-0.81,0-1.594,0.041-2.373-0.014
	c-0.722-0.049-1.032,0.162-1.169,0.938c-0.654,3.738-1.387,7.465-2.096,11.194c-0.051,0.274-0.135,0.543-0.217,0.857h-1.222
	C214.064,147.104,214.863,142.85,215.683,138.473"/>
<path fill-rule="evenodd" clip-rule="evenodd" fill="#FFFFFF" d="M181.693,150.868c0.15-0.352,0.271-0.635,0.358-0.844
	c0.987,0.204,1.912,0.51,2.851,0.562c1.397,0.077,2.561-0.79,2.985-2.018c0.444-1.282,0.065-2.523-1.078-3.444
	c-0.315-0.257-0.671-0.466-1.011-0.691c-1.911-1.267-2.561-2.987-1.82-4.83c0.708-1.766,2.785-2.882,4.799-2.534
	c0.604,0.105,1.188,0.33,1.846,0.52c-0.188,0.438-0.322,0.746-0.379,0.876c-1.121-0.078-2.139-0.292-3.119-0.181
	c-1.113,0.126-1.83,0.921-2.082,2.042c-0.245,1.098,0.166,1.981,1.005,2.668c0.46,0.377,0.981,0.678,1.471,1.02
	c1.567,1.097,2.134,2.616,1.7,4.444c-0.428,1.805-1.686,2.856-3.467,3.185C184.371,151.897,183,151.773,181.693,150.868"/>
<path fill-rule="evenodd" clip-rule="evenodd" fill="#FFFFFF" d="M254.873,150.643c0.268,0.716,0.086,1.02-0.664,1.079
	c-2.24,0.179-3.347-0.733-3.111-2.983c0.244-2.334,0.775-4.639,1.189-6.953c0.191-1.075,0.4-2.147,0.618-3.314
	c-0.696-0.034-1.313-0.064-1.967-0.097c-0.117-0.588-0.112-0.98,0.651-1.006c1.604-0.055,1.679-0.072,1.854-1.636
	c0.107-0.967,0.583-1.279,1.521-1.35c-0.158,0.991-0.31,1.931-0.478,2.97h3.427c0.099,0.702-0.01,1.125-0.774,1.064
	c-0.063-0.004-0.126-0.001-0.188,0c-0.875,0.026-2.006-0.266-2.554,0.172c-0.537,0.429-0.519,1.593-0.679,2.446
	c-0.432,2.281-0.887,4.561-1.221,6.857C252.147,150.304,252.449,150.601,254.873,150.643"/>
<path fill-rule="evenodd" clip-rule="evenodd" fill="#FFFFFF" d="M115.52,138.47c-0.73-0.038-1.368-0.071-2.086-0.108
	c0.082-0.368,0.142-0.636,0.205-0.918c0.138-0.021,0.259-0.056,0.379-0.059c1.746-0.055,1.792-0.045,2.082-1.811
	c0.142-0.861,0.645-1.118,1.516-1.223c-0.163,0.996-0.321,1.952-0.493,3.003h3.46c-0.033,0.381-0.059,0.671-0.093,1.063
	c-1.029,0-1.997,0.018-2.964-0.007c-0.502-0.013-0.706,0.162-0.798,0.677c-0.516,2.902-1.08,5.797-1.611,8.697
	c-0.072,0.397-0.062,0.814-0.059,1.222c0.006,1.245,0.467,1.654,1.739,1.641c0.273-0.003,0.549,0.135,0.824,0.209
	c-0.112,0.269-0.162,0.717-0.344,0.779c-2.147,0.727-3.877-0.664-3.533-2.927c0.47-3.099,1.078-6.178,1.625-9.264
	C115.422,139.146,115.462,138.848,115.52,138.47"/>
<path fill-rule="evenodd" clip-rule="evenodd" fill="#FFFFFF" d="M321.933,151.391h-1.277c1.322-6.965,2.629-13.853,3.941-20.767
	h1.309C324.579,137.561,323.26,144.446,321.933,151.391"/>
<path fill-rule="evenodd" clip-rule="evenodd" fill="#FFFFFF" d="M169.782,137.056c-0.078,0.443-0.137,0.776-0.196,1.11
	c-3.404,0.502-4.498,3.098-5.227,5.897c-0.553,2.117-0.898,4.293-1.254,6.457c-0.136,0.827-0.457,1.102-1.414,0.789
	c0.234-1.273,0.481-2.575,0.714-3.88c0.548-3.083,1.114-6.165,1.618-9.256c0.126-0.783,0.484-0.921,1.253-0.695
	c-0.106,0.861-0.213,1.743-0.355,2.9C166.141,138.493,167.279,136.838,169.782,137.056"/>
<path fill-rule="evenodd" clip-rule="evenodd" fill="#FFFFFF" d="M220.55,151.324c0.316-1.694,0.645-3.378,0.947-5.066
	c0.486-2.717,0.961-5.437,1.426-8.158c0.134-0.774,0.119-0.784,1.236-0.613c-0.115,0.883-0.23,1.771-0.345,2.658
	c1.161-1.67,2.322-3.251,4.713-3.107c0.099,0.764,0.111,1.276-0.946,1.346c-1.24,0.083-2.033,1.03-2.744,1.977
	c-1.369,1.827-1.724,4.007-2.133,6.167c-0.252,1.326-0.569,2.644-0.728,3.98C221.867,151.447,221.442,151.592,220.55,151.324"/>
<path fill-rule="evenodd" clip-rule="evenodd" fill="#FFFFFF" d="M246.549,137.434h1.271c-0.42,2.219-0.824,4.371-1.234,6.521
	c-0.412,2.158-0.877,4.31-1.229,6.478c-0.147,0.9-0.487,1.229-1.468,0.893C244.768,146.73,245.652,142.12,246.549,137.434"/>
<path fill-rule="evenodd" clip-rule="evenodd" fill="#FFFFFF" d="M246.906,133.244c0.133-0.61,0.367-1.146,1.127-1.123
	c0.719,0.019,0.986,0.515,0.972,1.134c-0.017,0.673-0.396,1.148-1.106,1.145C247.197,134.396,246.964,133.882,246.906,133.244"/>
</svg>
